HIERARCHY
ROOT Hips
{
 OFFSET 0.000000 0.000000 0.000000
 CHANNELS 6 Xposition Yposition Zposition Yrotation Xrotation Zrotation
 JOINT Chest
 {
  OFFSET 0.000000 9.581000 -0.001100
  CHANNELS 3 Yrotation Xrotation Zrotation
  JOINT Chest2
  {
   OFFSET 0.000000 9.561100 0.002200
   CHANNELS 3 Yrotation Xrotation Zrotation
   JOINT Chest3
   {
    OFFSET 0.000000 9.521100 0.000000
    CHANNELS 3 Yrotation Xrotation Zrotation
    JOINT Chest4
    {
     OFFSET 0.000000 9.511400 0.000000
     CHANNELS 3 Yrotation Xrotation Zrotation
     JOINT Neck
     {
      OFFSET 0.000000 14.375100 0.000000
      CHANNELS 3 Yrotation Xrotation Zrotation
      JOINT Head
      {
       OFFSET 0.000000 8.901200 0.004600
       CHANNELS 3 Yrotation Xrotation Zrotation
       End Site
       {
        OFFSET 0.000000 16.962200 0.002400
       }
      }
     }
     JOINT RightCollar
     {
      OFFSET -2.920100 9.518800 0.000000
      CHANNELS 3 Yrotation Xrotation Zrotation
      JOINT RightShoulder
      {
       OFFSET -13.664500 0.000000 0.000000
       CHANNELS 3 Yrotation Xrotation Zrotation
       JOINT RightElbow
       {
        OFFSET 0.000000 -29.999200 0.000000
        CHANNELS 3 Yrotation Xrotation Zrotation
        JOINT RightWrist
        {
         OFFSET 0.000000 -24.253600 0.000000
         CHANNELS 3 Yrotation Xrotation Zrotation
         End Site
         {
          OFFSET 0.000000 -17.918900 0.000000
         }
        }
       }
      }
     }
     JOINT LeftCollar
     {
      OFFSET 2.920100 9.518800 0.000000
      CHANNELS 3 Yrotation Xrotation Zrotation
      JOINT LeftShoulder
      {
       OFFSET 13.664500 0.000000 0.000000
       CHANNELS 3 Yrotation Xrotation Zrotation
       JOINT LeftElbow
       {
        OFFSET 0.000000 -29.999200 0.000000
        CHANNELS 3 Yrotation Xrotation Zrotation
        JOINT LeftWrist
        {
         OFFSET 0.000000 -24.253600 0.000000
         CHANNELS 3 Yrotation Xrotation Zrotation
         End Site
         {
          OFFSET 0.000000 -17.918900 0.000000
         }
        }
       }
      }
     }
    }
   }
  }
 }
 JOINT RightHip
 {
  OFFSET -7.797300 0.005300 0.000500
  CHANNELS 3 Yrotation Xrotation Zrotation
  JOINT RightKnee
  {
   OFFSET 0.000000 -40.663400 -0.000500
   CHANNELS 3 Yrotation Xrotation Zrotation
   JOINT RightAnkle
   {
    OFFSET 0.000000 -39.523700 -0.000900
    CHANNELS 3 Yrotation Xrotation Zrotation
    JOINT RightToe
    {
     OFFSET 0.000000 -6.418000 14.485300
     CHANNELS 3 Yrotation Xrotation Zrotation
     End Site
     {
      OFFSET 0.000000 -1.465200 6.326400
     }
    }
   }
  }
 }
 JOINT LeftHip
 {
  OFFSET 7.797300 0.005300 0.000500
  CHANNELS 3 Yrotation Xrotation Zrotation
  JOINT LeftKnee
  {
   OFFSET 0.000000 -40.663400 -0.000500
   CHANNELS 3 Yrotation Xrotation Zrotation
   JOINT LeftAnkle
   {
    OFFSET 0.000000 -39.523700 -0.000900
    CHANNELS 3 Yrotation Xrotation Zrotation
    JOINT LeftToe
    {
     OFFSET 0.000000 -6.418000 14.485300
     CHANNELS 3 Yrotation Xrotation Zrotation
     End Site
     {
      OFFSET 0.000000 -1.465200 6.326400
     }
    }
   }
  }
 }
}
MOTION
Frames: 7
Frame Time: 0.008333
0.000000 86.422400 0.000000 0.000000 -5.767877 0.000000 0.000000 11.653817 0.000000 0.000000 -5.885947 0.000000 0.000000 -0.000000 0.000000 0.000000 -0.000000 0.000000 0.000000 12.528835 0.000000 0.000000 0.711642 0.000000 0.000000 -0.000000 0.000000 0.000000 0.000000 -90.000000 0.000000 -2.309062 0.000000 0.000000 2.309062 0.000000 0.000000 -0.000000 0.000000 0.000000 -0.000000 90.000000 0.000000 -2.309062 0.000000 0.000000 2.309062 0.000000 0.000000 8.520406 0.000000 0.000000 1.905762 0.000000 -0.000000 -4.658285 0.000000 0.000000 -0.000000 0.000000 0.000000 8.520406 0.000000 0.000000 1.905762 0.000000 -0.000000 -4.658285 0.000000 0.000000 -0.000000 0.000000
-23.133662 126.387072 59.273686 -174.123899 -27.344157 -1.224541 -1.827252 19.886541 0.839921 -0.243503 2.466789 0.137751 -0.383987 4.031102 0.219782 -1.582615 17.125278 0.761071 2.539305 17.343981 -0.048298 2.700190 -7.500857 -0.639214 -1.597129 -7.216840 -1.341460 13.383076 -18.815892 -8.623657 61.920685 -56.371545 -36.879428 2.203575 13.805703 -31.040726 -5.355262 -8.438422 1.067477 -8.639310 -22.720354 5.544570 -35.826113 -48.847190 19.410003 -17.981592 11.019896 25.180476 -9.424731 -59.709967 3.509020 -41.158611 64.593625 -40.722090 31.048148 40.403956 23.294827 0.000613 -0.003675 0.000271 -9.971167 -48.796340 -6.835261 14.382641 69.723248 6.065339 0.242976 8.380833 6.308699 0.000707 -0.000592 0.000313
-23.134226 126.387837 59.274482 -174.120882 -27.351274 -1.220316 -1.824455 19.881392 0.836029 -0.238901 2.459414 0.137218 -0.391055 4.041990 0.219497 -1.584585 17.130714 0.762147 2.544784 17.322776 -0.051716 2.703238 -7.511681 -0.638296 -1.595286 -7.234200 -1.334586 13.399821 -18.820017 -8.625885 61.849376 -56.347661 -36.821300 2.196580 13.782835 -31.048901 -5.351719 -8.464156 1.063600 -8.648817 -22.709381 5.548032 -35.820980 -48.799952 19.402987 -17.960386 10.993233 25.184170 -9.398252 -59.706168 3.486930 -41.137609 64.603718 -40.705832 30.996043 40.392382 23.276998 -0.005030 -0.008822 -0.002228 -9.947985 -48.786830 -6.856789 14.387677 69.721816 6.076620 0.239593 8.380422 6.311294 0.001229 -0.000319 0.000544
-23.135642 126.388889 59.275204 -174.117042 -27.362527 -1.211233 -1.825608 19.879780 0.826699 -0.241731 2.465737 0.136637 -0.388075 4.036129 0.219799 -1.585536 17.128572 0.758458 2.548761 17.312967 -0.050661 2.710724 -7.529708 -0.637809 -1.600922 -7.288462 -1.304723 13.422366 -18.775152 -8.634838 61.779751 -56.325431 -36.762168 2.194537 13.778370 -31.048002 -5.357942 -8.478861 1.063392 -8.678560 -22.737505 5.557394 -35.765820 -48.724386 19.363083 -17.947121 10.973544 25.182895 -9.367646 -59.702518 3.459561 -41.073505 64.636309 -40.658089 30.894775 40.379923 23.265767 -0.014127 -0.014997 -0.006258 -9.914323 -48.771862 -6.895084 14.389103 69.714829 6.090883 0.239331 8.383446 6.312919 0.001039 -0.000180 0.000460
-23.135355 126.389706 59.276563 -174.114347 -27.371191 -1.211128 -1.824071 19.875521 0.827280 -0.242991 2.471935 0.136783 -0.385142 4.027499 0.219675 -1.585836 17.132918 0.760118 2.551901 17.301964 -0.051108 2.713566 -7.539413 -0.639285 -1.606303 -7.294543 -1.299632 13.440303 -18.785995 -8.635506 61.724554 -56.304041 -36.713334 2.189073 13.784135 -31.044153 -5.374063 -8.498823 1.062095 -8.699258 -22.745789 5.557940 -35.720676 -48.675708 19.339527 -17.941269 10.970811 25.178470 -9.348847 -59.698547 3.452114 -41.067535 64.651761 -40.654194 30.834275 40.370921 23.249953 -0.012367 -0.013574 -0.005478 -9.907316 -48.761607 -6.904275 14.374474 69.714812 6.080559 0.245975 8.382243 6.313814 0.001630 0.000133 0.000722
-23.134476 126.390541 59.277932 -174.112046 -27.381410 -1.214094 -1.823865 19.879292 0.829771 -0.239101 2.467248 0.136220 -0.391329 4.025523 0.220311 -1.576962 17.135971 0.756630 2.555367 17.291844 -0.048260 2.713305 -7.549832 -0.638929 -1.614672 -7.301240 -1.287914 13.457973 -18.798489 -8.633233 61.644640 -56.271314 -36.639750 2.196161 13.774045 -31.043439 -5.389069 -8.514897 1.067232 -8.718760 -22.746339 5.558681 -35.686234 -48.638618 19.322900 -17.935423 10.965096 25.179776 -9.346437 -59.688786 3.459582 -41.045352 64.669827 -40.638104 30.840081 40.343745 23.226837 -0.001719 -0.007039 -0.000761 -9.906713 -48.747881 -6.912257 14.377918 69.710662 6.091017 0.247781 8.382378 6.315722 -0.000162 0.002636 -0.000072
-23.133160 126.391897 59.278196 -174.104872 -27.399684 -1.222330 -1.827944 19.890542 0.835094 -0.247027 2.446239 0.136682 -0.390860 4.039689 0.218978 -1.584237 17.126519 0.754842 2.570307 17.293276 -0.053049 2.718244 -7.558361 -0.642111 -1.598683 -7.318676 -1.284737 13.464455 -18.785458 -8.628428 61.556944 -56.226310 -36.550431 2.201317 13.739863 -31.049816 -5.386263 -8.522046 1.063668 -8.733810 -22.742343 5.559097 -35.652468 -48.575420 19.308078 -17.913709 10.930799 25.184494 -9.353635 -59.666776 3.470607 -41.006237 64.692606 -40.602971 30.869314 40.314067 23.197345 0.012123 0.002359 0.005371 -9.926921 -48.729948 -6.904345 14.384271 69.711409 6.094380 0.249316 8.382259 6.314501 -0.000657 0.002410 -0.000291
